<svg width="6" height="8" xmlns="http://www.w3.org/2000/svg"><path d="M.607 2.584c-.011-.719.19-1.316.604-1.792S2.234.063 3.039.035c.669-.023 1.23.147 1.682.512.452.364.688.838.709 1.421.009.25-.01.471-.055.664a1.34 1.34 0 0 1-.253.525c-.123.157-.233.28-.331.368a8.296 8.296 0 0 1-.446.367l-.243.191-.228.175-.175.144-.151.149-.096.147-.069.18-.012.191.015.427-.989.035-.018-.499c-.01-.298.054-.548.193-.749.139-.201.374-.427.706-.679.429-.335.699-.571.809-.711a1.23 1.23 0 0 0 .268-.822 1.091 1.091 0 0 0-.334-.757c-.212-.213-.535-.312-.969-.297-.902.032-1.364.57-1.386 1.617L.607 2.588zm1.726 5.102l-.046-1.322 1.368-.048.046 1.322-1.368.048z" fill="#0073f7"/></svg>